<svg xmlns="http://www.w3.org/2000/svg" xmlns:xlink="http://www.w3.org/1999/xlink" xmlns:lucid="lucid" width="1280" height="740"><g transform="translate(-60 -120)" lucid:page-tab-id="0_0"><path d="M860 146c0-3.3 2.7-6 6-6h448c3.3 0 6 2.7 6 6v288c0 3.3-2.7 6-6 6H866c-3.3 0-6-2.7-6-6z" stroke="#fff" stroke-width="3" fill-opacity="0"/><use xlink:href="#a" transform="matrix(1,0,0,1,865,145) translate(0 23.11111111111111)"/><use xlink:href="#b" transform="matrix(1,0,0,1,865,145) translate(60.9074074074074 23.11111111111111)"/><path d="M860 566c0-3.3 2.7-6 6-6h448c3.3 0 6 2.7 6 6v268c0 3.3-2.7 6-6 6H866c-3.3 0-6-2.7-6-6z" stroke="#fff" stroke-width="3" fill-opacity="0"/><use xlink:href="#c" transform="matrix(1,0,0,1,865,565) translate(0 23.11111111111111)"/><use xlink:href="#d" transform="matrix(1,0,0,1,865,565) translate(71.5 23.11111111111111)"/><path d="M80 146c0-3.3 2.7-6 6-6h488c3.3 0 6 2.7 6 6v688c0 3.3-2.7 6-6 6H86c-3.3 0-6-2.7-6-6z" stroke="#fff" stroke-width="3" fill-opacity="0"/><use xlink:href="#e" transform="matrix(1,0,0,1,85,145) translate(0 23.11111111111111)"/><path d="M480 406c0-3.3 2.7-6 6-6h308c3.3 0 6 2.7 6 6v168c0 3.3-2.7 6-6 6H486c-3.3 0-6-2.7-6-6z" stroke="#ff00e5" stroke-width="3" fill="#ff00e5"/><use xlink:href="#f" transform="matrix(1,0,0,1,485,405) translate(0 24.888888888888886)"/><path d="M140 226c0-3.3 2.7-6 6-6h188c3.3 0 6 2.7 6 6v128c0 3.3-2.7 6-6 6H146c-3.3 0-6-2.7-6-6z" stroke="#ff00e5" stroke-width="3" fill="#ff00e5"/><use xlink:href="#g" transform="matrix(1,0,0,1,152,232) translate(0 23.111111111111104)"/><use xlink:href="#h" transform="matrix(1,0,0,1,152,232) translate(80.00617283950614 23.111111111111104)"/><path d="M920 206c0-3.3 2.7-6 6-6h308c3.3 0 6 2.7 6 6v168c0 3.3-2.7 6-6 6H926c-3.3 0-6-2.7-6-6z" stroke="#ff00e5" stroke-width="3"/><use xlink:href="#i" transform="matrix(1,0,0,1,925,205) translate(0 24.888888888888886)"/><path d="M917.5 290h-22.9m-22.9 0h-45.83m-22.9 0h-45.82m-22.9 0h-22.92l-3.02.82-2.15 2.15-.82 3.03v28m0 28v28" stroke="#ff00e5" stroke-width="2" fill="none"/><path d="M918.5 291h-1.03v-2h1.03z" fill="#ff00e5"/><path d="M705.33 395.26L700.7 381h9.27z" stroke="#ff00e5" stroke-width="2" fill="#ff00e5"/><use xlink:href="#j" transform="matrix(1,0,0,1,748.0895061728395,256.66666666666663) translate(0 19.555555555555557)"/><path d="M920 626c0-3.3 2.7-6 6-6h308c3.3 0 6 2.7 6 6v168c0 3.3-2.7 6-6 6H926c-3.3 0-6-2.7-6-6z" stroke="#ff00e5" stroke-width="3"/><use xlink:href="#k" transform="matrix(1,0,0,1,925,625) translate(93.7283950617284 88.63888888888889)"/><path d="M360 710h10m10 0h20m10 0h20m10 0h20m10 0h20m10 0h20m10 0h20m10 0h20m10 0h20m10 0h20m10 0h20m10 0h20m10 0h20m10 0h20m10 0h20m10 0h20m10 0h20m10 0h20m10 0h10" stroke="#ff00e5" stroke-width="2" fill="none"/><path d="M344.74 710l14.26-4.64v9.28zM915.26 710L901 714.64v-9.28z" stroke="#ff00e5" stroke-width="2" fill="#ff00e5"/><use xlink:href="#l" transform="matrix(1,0,0,1,576.0766112663277,714) translate(0.0049999999999954525 19.555555555555554)"/><use xlink:href="#m" transform="matrix(1,0,0,1,576.0766112663277,714) translate(88.07290123456787 19.555555555555554)"/><use xlink:href="#n" transform="matrix(1,0,0,1,576.0766112663277,714) translate(185.7148765432098 19.555555555555554)"/><use xlink:href="#o" transform="matrix(1,0,0,1,576.0766112663277,714) translate(35.99265432098764 48.888888888888886)"/><use xlink:href="#p" transform="matrix(1,0,0,1,576.0766112663277,714) translate(60.36919753086418 48.888888888888886)"/><use xlink:href="#q" transform="matrix(1,0,0,1,576.0766112663277,714) translate(125.35067901234564 48.888888888888886)"/><path d="M140 656c0-3.3 2.7-6 6-6h188c3.3 0 6 2.7 6 6v108c0 3.3-2.7 6-6 6H146c-3.3 0-6-2.7-6-6z" stroke="#ff00e5" stroke-width="3"/><use xlink:href="#r" transform="matrix(1,0,0,1,145,655.0000000000001) translate(33.728395061728406 42.076388888888886)"/><use xlink:href="#s" transform="matrix(1,0,0,1,145,655.0000000000001) translate(54.46913580246915 79.40972222222221)"/><path d="M640 380v-84c0-3.3-2.7-6-6-6H360" stroke="#ff00e5" stroke-width="2" fill="none"/><path d="M640 395.26L635.36 381h9.28zM344.74 290l14.26-4.64v9.28z" stroke="#ff00e5" stroke-width="2" fill="#ff00e5"/><use xlink:href="#t" transform="matrix(1,0,0,1,436.5299322192999,256.66666666666663) translate(0 19.555555555555557)"/><path d="M240 647.5V496c0-3.3 2.7-6 6-6h214" stroke="#ff00e5" stroke-width="2" fill="none"/><path d="M241 648.5h-2v-1.03h2z" fill="#ff00e5"/><path d="M475.26 490L461 494.64v-9.28z" stroke="#ff00e5" stroke-width="2" fill="#ff00e5"/><g><use xlink:href="#u" transform="matrix(1,0,0,1,255.8543462070453,459.33333333333337) translate(0 17.77777777777778)"/></g><path d="M802.5 490h18.72m18.72 0h37.45m18.7 0h37.46m18.72 0h37.44m18.72 0h37.45m18.7 0h18.73l3.03-.82 2.15-2.15.83-3.03v-28m0-28v-28" stroke="#ff00e5" stroke-width="2" fill="none"/><path d="M802.53 491h-1.03v-2h1.03z" fill="#ff00e5"/><path d="M1089.33 384.74l4.64 14.26h-9.27z" stroke="#ff00e5" stroke-width="2" fill="#ff00e5"/><g><use xlink:href="#v" transform="matrix(1,0,0,1,895.7469135802469,494) translate(0 19.555555555555557)"/><use xlink:href="#w" transform="matrix(1,0,0,1,895.7469135802469,494) translate(55.0679012345679 19.555555555555557)"/><use xlink:href="#x" transform="matrix(1,0,0,1,895.7469135802469,494) translate(105.17901234567901 19.555555555555557)"/></g><defs><path fill="#fff" d="M24-248c120-7 223 5 221 122C244-46 201 0 124 0H24v-248zM76-40c74 7 117-18 117-86 0-67-45-88-117-82v168" id="y"/><path fill="#fff" d="M185-48c-13 30-37 53-82 52C43 2 14-33 14-96s30-98 90-98c62 0 83 45 84 108H66c0 31 8 55 39 56 18 0 30-7 34-22zm-45-69c5-46-57-63-70-21-2 6-4 13-4 21h74" id="z"/><path fill="#fff" d="M128 0H69L1-190h53L99-40l48-150h52" id="A"/><g id="a"><use transform="matrix(0.08024691358024691,0,0,0.08024691358024691,0,0)" xlink:href="#y"/><use transform="matrix(0.08024691358024691,0,0,0.08024691358024691,20.78395061728395,0)" xlink:href="#z"/><use transform="matrix(0.08024691358024691,0,0,0.08024691358024691,36.83333333333333,0)" xlink:href="#A"/></g><path fill="#fff" d="M24 0v-248h195v40H76v63h132v40H76v65h150V0H24" id="B"/><path fill="#fff" d="M135-194c87-1 58 113 63 194h-50c-7-57 23-157-34-157-59 0-34 97-39 157H25l-1-190h47c2 12-1 28 3 38 12-26 28-41 61-42" id="C"/><path fill="#fff" d="M25-224v-37h50v37H25zM25 0v-190h50V0H25" id="D"/><path fill="#fff" d="M135-150c-39-12-60 13-60 57V0H25l-1-190h47c2 13-1 29 3 40 6-28 27-53 61-41v41" id="E"/><path fill="#fff" d="M110-194c64 0 96 36 96 99 0 64-35 99-97 99-61 0-95-36-95-99 0-62 34-99 96-99zm-1 164c35 0 45-28 45-65 0-40-10-65-43-65-34 0-45 26-45 65 0 36 10 65 43 65" id="F"/><path fill="#fff" d="M220-157c-53 9-28 100-34 157h-49v-107c1-27-5-49-29-50C55-147 81-57 75 0H25l-1-190h47c2 12-1 28 3 38 10-53 101-56 108 0 13-22 24-43 59-42 82 1 51 116 57 194h-49v-107c-1-25-5-48-29-50" id="G"/><path fill="#fff" d="M115-3C79 11 28 4 28-45v-112H4v-33h27l15-45h31v45h36v33H77v99c-1 23 16 31 38 25v30" id="H"/><g id="b"><use transform="matrix(0.08024691358024691,0,0,0.08024691358024691,0,0)" xlink:href="#B"/><use transform="matrix(0.08024691358024691,0,0,0.08024691358024691,19.25925925925926,0)" xlink:href="#C"/><use transform="matrix(0.08024691358024691,0,0,0.08024691358024691,36.83333333333333,0)" xlink:href="#A"/><use transform="matrix(0.08024691358024691,0,0,0.08024691358024691,52.8827160493827,0)" xlink:href="#D"/><use transform="matrix(0.08024691358024691,0,0,0.08024691358024691,60.9074074074074,0)" xlink:href="#E"/><use transform="matrix(0.08024691358024691,0,0,0.08024691358024691,72.14197530864196,0)" xlink:href="#F"/><use transform="matrix(0.08024691358024691,0,0,0.08024691358024691,89.71604938271605,0)" xlink:href="#C"/><use transform="matrix(0.08024691358024691,0,0,0.08024691358024691,107.29012345679011,0)" xlink:href="#G"/><use transform="matrix(0.08024691358024691,0,0,0.08024691358024691,132.9691358024691,0)" xlink:href="#z"/><use transform="matrix(0.08024691358024691,0,0,0.08024691358024691,149.0185185185185,0)" xlink:href="#C"/><use transform="matrix(0.08024691358024691,0,0,0.08024691358024691,166.59259259259258,0)" xlink:href="#H"/></g><path fill="#fff" d="M146-102V0H94v-102L6-248h54l60 105 60-105h54" id="I"/><path fill="#fff" d="M85 4C-2 5 27-109 22-190h50c7 57-23 150 33 157 60-5 35-97 40-157h50l1 190h-47c-2-12 1-28-3-38-12 25-28 42-61 42" id="J"/><g id="c"><use transform="matrix(0.08024691358024691,0,0,0.08024691358024691,0,0)" xlink:href="#I"/><use transform="matrix(0.08024691358024691,0,0,0.08024691358024691,17.09259259259259,0)" xlink:href="#F"/><use transform="matrix(0.08024691358024691,0,0,0.08024691358024691,34.666666666666664,0)" xlink:href="#J"/><use transform="matrix(0.08024691358024691,0,0,0.08024691358024691,52.24074074074074,0)" xlink:href="#E"/></g><path fill="#fff" d="M67-125c0 53 21 87 73 88 37 1 54-22 65-47l45 17C233-25 199 4 140 4 58 4 20-42 15-125 8-235 124-281 211-232c18 10 29 29 36 50l-46 12c-8-25-30-41-62-41-52 0-71 34-72 86" id="K"/><path fill="#fff" d="M25 0v-261h50V0H25" id="L"/><path fill="#fff" d="M88-194c31-1 46 15 58 34l-1-101h50l1 261h-48c-2-10 0-23-3-31C134-8 116 4 84 4 32 4 16-41 15-95c0-56 19-97 73-99zm17 164c33 0 40-30 41-66 1-37-9-64-41-64s-38 30-39 65c0 43 13 65 39 65" id="M"/><g id="d"><use transform="matrix(0.08024691358024691,0,0,0.08024691358024691,0,0)" xlink:href="#K"/><use transform="matrix(0.08024691358024691,0,0,0.08024691358024691,20.78395061728395,0)" xlink:href="#L"/><use transform="matrix(0.08024691358024691,0,0,0.08024691358024691,28.80864197530864,0)" xlink:href="#F"/><use transform="matrix(0.08024691358024691,0,0,0.08024691358024691,46.3827160493827,0)" xlink:href="#J"/><use transform="matrix(0.08024691358024691,0,0,0.08024691358024691,63.956790123456784,0)" xlink:href="#M"/></g><path fill="#fff" d="M186 0v-106H76V0H24v-248h52v99h110v-99h50V0h-50" id="N"/><path fill="#fff" d="M133-34C117-15 103 5 69 4 32 3 11-16 11-54c-1-60 55-63 116-61 1-26-3-47-28-47-18 1-26 9-28 27l-52-2c7-38 36-58 82-57s74 22 75 68l1 82c-1 14 12 18 25 15v27c-30 8-71 5-69-32zm-48 3c29 0 43-24 42-57-32 0-66-3-65 30 0 17 8 27 23 27" id="O"/><path fill="#fff" d="M231 0h-52l-39-155L100 0H48L-1-190h46L77-45c9-52 24-97 36-145h53l37 145 32-145h46" id="P"/><g id="e"><use transform="matrix(0.08024691358024691,0,0,0.08024691358024691,0,0)" xlink:href="#N"/><use transform="matrix(0.08024691358024691,0,0,0.08024691358024691,20.78395061728395,0)" xlink:href="#O"/><use transform="matrix(0.08024691358024691,0,0,0.08024691358024691,36.83333333333333,0)" xlink:href="#E"/><use transform="matrix(0.08024691358024691,0,0,0.08024691358024691,48.0679012345679,0)" xlink:href="#M"/><use transform="matrix(0.08024691358024691,0,0,0.08024691358024691,65.64197530864197,0)" xlink:href="#P"/><use transform="matrix(0.08024691358024691,0,0,0.08024691358024691,88.1111111111111,0)" xlink:href="#O"/><use transform="matrix(0.08024691358024691,0,0,0.08024691358024691,104.1604938271605,0)" xlink:href="#E"/><use transform="matrix(0.08024691358024691,0,0,0.08024691358024691,115.39506172839505,0)" xlink:href="#z"/></g><path fill="#fff" d="M240-174c0 40-23 61-54 70L253 0h-59l-57-94H76V0H24v-248c93 4 217-23 216 74zM76-134c48-2 112 12 112-38 0-48-66-32-112-35v73" id="Q"/><g id="f"><use transform="matrix(0.08641975308641973,0,0,0.08641975308641973,0,0)" xlink:href="#Q"/><use transform="matrix(0.08641975308641973,0,0,0.08641975308641973,22.38271604938271,0)" xlink:href="#J"/><use transform="matrix(0.08641975308641973,0,0,0.08641975308641973,41.30864197530863,0)" xlink:href="#C"/><use transform="matrix(0.08641975308641973,0,0,0.08641975308641973,60.234567901234556,0)" xlink:href="#z"/></g><g id="g"><use transform="matrix(0.08024691358024688,0,0,0.08024691358024688,0,0)" xlink:href="#Q"/><use transform="matrix(0.08024691358024688,0,0,0.08024691358024688,20.783950617283942,0)" xlink:href="#J"/><use transform="matrix(0.08024691358024688,0,0,0.08024691358024688,38.35802469135801,0)" xlink:href="#C"/><use transform="matrix(0.08024691358024688,0,0,0.08024691358024688,55.93209876543207,0)" xlink:href="#z"/></g><path fill="#fff" d="M147 0H94L2-248h55l64 206c17-72 42-137 63-206h54" id="R"/><path fill="#fff" d="M230 0l2-204L168 0h-37L68-204 70 0H24v-248h70l56 185 57-185h69V0h-46" id="S"/><g id="h"><use transform="matrix(0.08024691358024688,0,0,0.08024691358024688,0,0)" xlink:href="#R"/><use transform="matrix(0.08024691358024688,0,0,0.08024691358024688,19.259259259259252,0)" xlink:href="#S"/></g><path fill="#ff00e5" d="M135-150c-39-12-60 13-60 57V0H25l-1-190h47c2 13-1 29 3 40 6-28 27-53 61-41v41" id="T"/><path fill="#ff00e5" d="M85 4C-2 5 27-109 22-190h50c7 57-23 150 33 157 60-5 35-97 40-157h50l1 190h-47c-2-12 1-28-3-38-12 25-28 42-61 42" id="U"/><path fill="#ff00e5" d="M135-194c87-1 58 113 63 194h-50c-7-57 23-157-34-157-59 0-34 97-39 157H25l-1-190h47c2 12-1 28 3 38 12-26 28-41 61-42" id="V"/><path fill="#ff00e5" d="M185-48c-13 30-37 53-82 52C43 2 14-33 14-96s30-98 90-98c62 0 83 45 84 108H66c0 31 8 55 39 56 18 0 30-7 34-22zm-45-69c5-46-57-63-70-21-2 6-4 13-4 21h74" id="W"/><path fill="#ff00e5" d="M14-72v-43h91v43H14" id="X"/><path fill="#ff00e5" d="M190-63c-7 42-38 67-86 67-59 0-84-38-90-98-12-110 154-137 174-36l-49 2c-2-19-15-32-35-32-30 0-35 28-38 64-6 74 65 87 74 30" id="Y"/><path fill="#ff00e5" d="M25 0v-261h50V0H25" id="Z"/><path fill="#ff00e5" d="M25-224v-37h50v37H25zM25 0v-190h50V0H25" id="aa"/><g id="i"><use transform="matrix(0.08641975308641973,0,0,0.08641975308641973,0,0)" xlink:href="#T"/><use transform="matrix(0.08641975308641973,0,0,0.08641975308641973,12.098765432098762,0)" xlink:href="#U"/><use transform="matrix(0.08641975308641973,0,0,0.08641975308641973,31.024691358024686,0)" xlink:href="#V"/><use transform="matrix(0.08641975308641973,0,0,0.08641975308641973,49.950617283950606,0)" xlink:href="#W"/><use transform="matrix(0.08641975308641973,0,0,0.08641975308641973,67.23456790123456,0)" xlink:href="#X"/><use transform="matrix(0.08641975308641973,0,0,0.08641975308641973,77.5185185185185,0)" xlink:href="#Y"/><use transform="matrix(0.08641975308641973,0,0,0.08641975308641973,94.80246913580245,0)" xlink:href="#Z"/><use transform="matrix(0.08641975308641973,0,0,0.08641975308641973,103.44444444444443,0)" xlink:href="#aa"/></g><path fill="#ff00e5" d="M182-130c37 4 62 22 62 59C244 23 116-4 24 0v-248c84 5 203-23 205 63 0 31-19 50-47 55zM76-148c40-3 101 13 101-30 0-44-60-28-101-31v61zm0 110c48-3 116 14 116-37 0-48-69-32-116-35v72" id="ab"/><path fill="#ff00e5" d="M88-194c31-1 46 15 58 34l-1-101h50l1 261h-48c-2-10 0-23-3-31C134-8 116 4 84 4 32 4 16-41 15-95c0-56 19-97 73-99zm17 164c33 0 40-30 41-66 1-37-9-64-41-64s-38 30-39 65c0 43 13 65 39 65" id="ac"/><path fill="#ff00e5" d="M137-138c1-29-70-34-71-4 15 46 118 7 119 86 1 83-164 76-172 9l43-7c4 19 20 25 44 25 33 8 57-30 24-41C81-84 22-81 20-136c-2-80 154-74 161-7" id="ad"/><g id="j"><use transform="matrix(0.06790123456790123,0,0,0.06790123456790123,0,0)" xlink:href="#ab"/><use transform="matrix(0.06790123456790123,0,0,0.06790123456790123,17.586419753086417,0)" xlink:href="#U"/><use transform="matrix(0.06790123456790123,0,0,0.06790123456790123,32.456790123456784,0)" xlink:href="#aa"/><use transform="matrix(0.06790123456790123,0,0,0.06790123456790123,39.24691358024691,0)" xlink:href="#Z"/><use transform="matrix(0.06790123456790123,0,0,0.06790123456790123,46.03703703703703,0)" xlink:href="#ac"/><use transform="matrix(0.06790123456790123,0,0,0.06790123456790123,60.907407407407405,0)" xlink:href="#ad"/></g><path fill="#ff00e5" d="M114-157C55-157 80-60 75 0H25v-261h50l-1 109c12-26 28-41 61-42 86-1 58 113 63 194h-50c-7-57 23-157-34-157" id="ae"/><path fill="#ff00e5" d="M133-34C117-15 103 5 69 4 32 3 11-16 11-54c-1-60 55-63 116-61 1-26-3-47-28-47-18 1-26 9-28 27l-52-2c7-38 36-58 82-57s74 22 75 68l1 82c-1 14 12 18 25 15v27c-30 8-71 5-69-32zm-48 3c29 0 43-24 42-57-32 0-66-3-65 30 0 17 8 27 23 27" id="af"/><path fill="#ff00e5" d="M220-157c-53 9-28 100-34 157h-49v-107c1-27-5-49-29-50C55-147 81-57 75 0H25l-1-190h47c2 12-1 28 3 38 10-53 101-56 108 0 13-22 24-43 59-42 82 1 51 116 57 194h-49v-107c-1-25-5-48-29-50" id="ag"/><g id="k"><use transform="matrix(0.08641975308641973,0,0,0.08641975308641973,0,0)" xlink:href="#ae"/><use transform="matrix(0.08641975308641973,0,0,0.08641975308641973,18.92592592592592,0)" xlink:href="#af"/><use transform="matrix(0.08641975308641973,0,0,0.08641975308641973,36.209876543209866,0)" xlink:href="#ag"/><use transform="matrix(0.08641975308641973,0,0,0.08641975308641973,63.86419753086418,0)" xlink:href="#ag"/><use transform="matrix(0.08641975308641973,0,0,0.08641975308641973,91.5185185185185,0)" xlink:href="#T"/><use transform="matrix(0.08641975308641973,0,0,0.08641975308641973,103.61728395061726,0)" xlink:href="#ac"/></g><path fill="#ff00e5" d="M67-125c0 53 21 87 73 88 37 1 54-22 65-47l45 17C233-25 199 4 140 4 58 4 20-42 15-125 8-235 124-281 211-232c18 10 29 29 36 50l-46 12c-8-25-30-41-62-41-52 0-71 34-72 86" id="ah"/><path fill="#ff00e5" d="M110-194c64 0 96 36 96 99 0 64-35 99-97 99-61 0-95-36-95-99 0-62 34-99 96-99zm-1 164c35 0 45-28 45-65 0-40-10-65-43-65-34 0-45 26-45 65 0 36 10 65 43 65" id="ai"/><path fill="#ff00e5" d="M115-3C79 11 28 4 28-45v-112H4v-33h27l15-45h31v45h36v33H77v99c-1 23 16 31 38 25v30" id="aj"/><g id="l"><use transform="matrix(0.06790123456790122,0,0,0.06790123456790122,0,0)" xlink:href="#ah"/><use transform="matrix(0.06790123456790122,0,0,0.06790123456790122,17.586419753086414,0)" xlink:href="#ai"/><use transform="matrix(0.06790123456790122,0,0,0.06790123456790122,32.456790123456784,0)" xlink:href="#Z"/><use transform="matrix(0.06790123456790122,0,0,0.06790123456790122,39.246913580246904,0)" xlink:href="#Z"/><use transform="matrix(0.06790123456790122,0,0,0.06790123456790122,46.037037037037024,0)" xlink:href="#W"/><use transform="matrix(0.06790123456790122,0,0,0.06790123456790122,59.617283950617264,0)" xlink:href="#Y"/><use transform="matrix(0.06790123456790122,0,0,0.06790123456790122,73.1975308641975,0)" xlink:href="#aj"/></g><path fill="#ff00e5" d="M135-194c52 0 70 43 70 98 0 56-19 99-73 100-30 1-46-15-58-35L72 0H24l1-261h50v104c11-23 29-37 60-37zM114-30c31 0 40-27 40-66 0-37-7-63-39-63s-41 28-41 65c0 36 8 64 40 64" id="ak"/><g id="m"><use transform="matrix(0.06790123456790122,0,0,0.06790123456790122,0,0)" xlink:href="#Z"/><use transform="matrix(0.06790123456790122,0,0,0.06790123456790122,6.790123456790122,0)" xlink:href="#af"/><use transform="matrix(0.06790123456790122,0,0,0.06790123456790122,20.370370370370367,0)" xlink:href="#ak"/><use transform="matrix(0.06790123456790122,0,0,0.06790123456790122,35.24074074074073,0)" xlink:href="#W"/><use transform="matrix(0.06790123456790122,0,0,0.06790123456790122,48.82098765432097,0)" xlink:href="#Z"/><use transform="matrix(0.06790123456790122,0,0,0.06790123456790122,55.6111111111111,0)" xlink:href="#Z"/><use transform="matrix(0.06790123456790122,0,0,0.06790123456790122,62.40123456790121,0)" xlink:href="#W"/><use transform="matrix(0.06790123456790122,0,0,0.06790123456790122,75.98148148148145,0)" xlink:href="#ac"/></g><g id="n"><use transform="matrix(0.06790123456790122,0,0,0.06790123456790122,0,0)" xlink:href="#ac"/><use transform="matrix(0.06790123456790122,0,0,0.06790123456790122,14.870370370370367,0)" xlink:href="#af"/><use transform="matrix(0.06790123456790122,0,0,0.06790123456790122,28.45061728395061,0)" xlink:href="#aj"/><use transform="matrix(0.06790123456790122,0,0,0.06790123456790122,36.53086419753085,0)" xlink:href="#af"/></g><path fill="#ff00e5" d="M168-19C124 19 11 11 16-68c3-43 29-60 59-75-25-44-12-111 53-106 37 3 64 15 64 52 0 43-40 52-69 68 12 22 27 41 43 59 14-19 21-38 28-64l37 13c-8 29-19 52-34 74 12 10 32 16 52 10v35c-28 11-65-2-81-17zm-58-139c19-9 43-14 43-39 0-14-10-22-25-22-34 0-33 41-18 61zM60-68c-3 40 55 47 79 25-18-20-34-42-48-67-18 8-30 20-31 42" id="al"/><use transform="matrix(0.06790123456790122,0,0,0.06790123456790122,0,0)" xlink:href="#al" id="o"/><path fill="#ff00e5" d="M121-226c-27-7-43 5-38 36h38v33H83V0H34v-157H6v-33h28c-9-59 32-81 87-68v32" id="am"/><g id="p"><use transform="matrix(0.06790123456790122,0,0,0.06790123456790122,0,0)" xlink:href="#am"/><use transform="matrix(0.06790123456790122,0,0,0.06790123456790122,8.080246913580245,0)" xlink:href="#W"/><use transform="matrix(0.06790123456790122,0,0,0.06790123456790122,21.660493827160487,0)" xlink:href="#aj"/><use transform="matrix(0.06790123456790122,0,0,0.06790123456790122,29.740740740740733,0)" xlink:href="#Y"/><use transform="matrix(0.06790123456790122,0,0,0.06790123456790122,43.32098765432097,0)" xlink:href="#ae"/></g><path fill="#ff00e5" d="M240-174c0 40-23 61-54 70L253 0h-59l-57-94H76V0H24v-248c93 4 217-23 216 74zM76-134c48-2 112 12 112-38 0-48-66-32-112-35v73" id="an"/><g id="q"><use transform="matrix(0.06790123456790122,0,0,0.06790123456790122,0,0)" xlink:href="#an"/><use transform="matrix(0.06790123456790122,0,0,0.06790123456790122,17.586419753086414,0)" xlink:href="#U"/><use transform="matrix(0.06790123456790122,0,0,0.06790123456790122,32.456790123456784,0)" xlink:href="#V"/><use transform="matrix(0.06790123456790122,0,0,0.06790123456790122,47.32716049382715,0)" xlink:href="#W"/><use transform="matrix(0.06790123456790122,0,0,0.06790123456790122,60.90740740740739,0)" xlink:href="#ad"/></g><g id="r"><use transform="matrix(0.08641975308641973,0,0,0.08641975308641973,0,0)" xlink:href="#ae"/><use transform="matrix(0.08641975308641973,0,0,0.08641975308641973,18.92592592592592,0)" xlink:href="#af"/><use transform="matrix(0.08641975308641973,0,0,0.08641975308641973,36.209876543209866,0)" xlink:href="#ag"/><use transform="matrix(0.08641975308641973,0,0,0.08641975308641973,63.86419753086418,0)" xlink:href="#ag"/><use transform="matrix(0.08641975308641973,0,0,0.08641975308641973,91.5185185185185,0)" xlink:href="#T"/><use transform="matrix(0.08641975308641973,0,0,0.08641975308641973,103.61728395061726,0)" xlink:href="#ac"/></g><g id="s"><use transform="matrix(0.08641975308641973,0,0,0.08641975308641973,0,0)" xlink:href="#Y"/><use transform="matrix(0.08641975308641973,0,0,0.08641975308641973,17.283950617283946,0)" xlink:href="#Z"/><use transform="matrix(0.08641975308641973,0,0,0.08641975308641973,25.925925925925917,0)" xlink:href="#aa"/><use transform="matrix(0.08641975308641973,0,0,0.08641975308641973,34.56790123456789,0)" xlink:href="#W"/><use transform="matrix(0.08641975308641973,0,0,0.08641975308641973,51.85185185185183,0)" xlink:href="#V"/><use transform="matrix(0.08641975308641973,0,0,0.08641975308641973,70.77777777777776,0)" xlink:href="#aj"/></g><path fill="#ff00e5" d="M30 0v-248h187v28H63v79h144v27H63v87h162V0H30" id="ao"/><path fill="#ff00e5" d="M141 0L90-78 38 0H4l68-98-65-92h35l48 74 47-74h35l-64 92 68 98h-35" id="ap"/><path fill="#ff00e5" d="M100-194c63 0 86 42 84 106H49c0 40 14 67 53 68 26 1 43-12 49-29l28 8c-11 28-37 45-77 45C44 4 14-33 15-96c1-61 26-98 85-98zm52 81c6-60-76-77-97-28-3 7-6 17-6 28h103" id="aq"/><path fill="#ff00e5" d="M96-169c-40 0-48 33-48 73s9 75 48 75c24 0 41-14 43-38l32 2c-6 37-31 61-74 61-59 0-76-41-82-99-10-93 101-131 147-64 4 7 5 14 7 22l-32 3c-4-21-16-35-41-35" id="ar"/><path fill="#ff00e5" d="M84 4C-5 8 30-112 23-190h32v120c0 31 7 50 39 49 72-2 45-101 50-169h31l1 190h-30c-1-10 1-25-2-33-11 22-28 36-60 37" id="as"/><path fill="#ff00e5" d="M59-47c-2 24 18 29 38 22v24C64 9 27 4 27-40v-127H5v-23h24l9-43h21v43h35v23H59v120" id="at"/><path fill="#ff00e5" d="M135-143c-3-34-86-38-87 0 15 53 115 12 119 90S17 21 10-45l28-5c4 36 97 45 98 0-10-56-113-15-118-90-4-57 82-63 122-42 12 7 21 19 24 35" id="au"/><g id="t"><use transform="matrix(0.06790123456790123,0,0,0.06790123456790123,0,0)" xlink:href="#ao"/><use transform="matrix(0.06790123456790123,0,0,0.06790123456790123,16.296296296296294,0)" xlink:href="#ap"/><use transform="matrix(0.06790123456790123,0,0,0.06790123456790123,28.518518518518515,0)" xlink:href="#aq"/><use transform="matrix(0.06790123456790123,0,0,0.06790123456790123,42.09876543209876,0)" xlink:href="#ar"/><use transform="matrix(0.06790123456790123,0,0,0.06790123456790123,54.32098765432098,0)" xlink:href="#as"/><use transform="matrix(0.06790123456790123,0,0,0.06790123456790123,67.90123456790123,0)" xlink:href="#at"/><use transform="matrix(0.06790123456790123,0,0,0.06790123456790123,74.69135802469135,0)" xlink:href="#aq"/><use transform="matrix(0.06790123456790123,0,0,0.06790123456790123,88.2716049382716,0)" xlink:href="#au"/></g><path fill="#ff00e5" d="M24 0v-248h52V0H24" id="av"/><g id="u"><use transform="matrix(0.06172839506172839,0,0,0.06172839506172839,0,0)" xlink:href="#av"/><use transform="matrix(0.06172839506172839,0,0,0.06172839506172839,6.172839506172839,0)" xlink:href="#V"/><use transform="matrix(0.06172839506172839,0,0,0.06172839506172839,19.691358024691358,0)" xlink:href="#ad"/><use transform="matrix(0.06172839506172839,0,0,0.06172839506172839,32.03703703703704,0)" xlink:href="#aj"/><use transform="matrix(0.06172839506172839,0,0,0.06172839506172839,39.382716049382715,0)" xlink:href="#af"/><use transform="matrix(0.06172839506172839,0,0,0.06172839506172839,51.72839506172839,0)" xlink:href="#Z"/><use transform="matrix(0.06172839506172839,0,0,0.06172839506172839,57.901234567901234,0)" xlink:href="#Z"/><use transform="matrix(0.06172839506172839,0,0,0.06172839506172839,64.07407407407408,0)" xlink:href="#ad"/></g><path fill="#ff00e5" d="M136-208V0H84v-208H4v-40h212v40h-80" id="aw"/><g id="v"><use transform="matrix(0.06790123456790123,0,0,0.06790123456790123,0,0)" xlink:href="#aw"/><use transform="matrix(0.06790123456790123,0,0,0.06790123456790123,13.037037037037036,0)" xlink:href="#W"/><use transform="matrix(0.06790123456790123,0,0,0.06790123456790123,26.617283950617285,0)" xlink:href="#ad"/><use transform="matrix(0.06790123456790123,0,0,0.06790123456790123,40.19753086419753,0)" xlink:href="#aj"/></g><g id="w"><use transform="matrix(0.06790123456790123,0,0,0.06790123456790123,0,0)" xlink:href="#af"/><use transform="matrix(0.06790123456790123,0,0,0.06790123456790123,13.580246913580247,0)" xlink:href="#V"/><use transform="matrix(0.06790123456790123,0,0,0.06790123456790123,28.450617283950617,0)" xlink:href="#ac"/></g><g id="x"><use transform="matrix(0.06790123456790123,0,0,0.06790123456790123,0,0)" xlink:href="#an"/><use transform="matrix(0.06790123456790123,0,0,0.06790123456790123,17.586419753086417,0)" xlink:href="#U"/><use transform="matrix(0.06790123456790123,0,0,0.06790123456790123,32.456790123456784,0)" xlink:href="#V"/></g></defs></g></svg>