<?xml version="1.0" encoding="UTF-8"?>
<svg width="1040px" height="1021px" viewBox="0 0 1040 1021" version="1.1" xmlns="http://www.w3.org/2000/svg" xmlns:xlink="http://www.w3.org/1999/xlink">
    <!-- Generator: Sketch 64 (93537) - https://sketch.com -->
    <title>orchestrate</title>
    <desc>Created with Sketch.</desc>
    <g id="Page-3" stroke="none" stroke-width="1" fill="none" fill-rule="evenodd">
        <g id="orchestrate" fill-rule="nonzero">
            <path d="M1019,535.497 C1019,254.109 790.888,25.9985 509.499,25.9985 C228.111,25.9985 0,254.109 0,535.497 C0,816.886 1019,816.886 1019,535.497 Z" id="Path" fill-opacity="0.184467876" fill="#E4B9F0"></path>
            <path d="M870.878,290.895 C869.434,292.339 867.195,292.339 865.751,290.895 C864.306,289.45 864.306,287.212 865.751,285.767 C867.195,284.323 869.434,284.323 870.878,285.767 C872.323,287.212 872.25,289.523 870.878,290.895 Z" id="Path" fill="#FFFFFF"></path>
            <path d="M891.243,454.324 C889.798,455.769 887.559,455.769 886.115,454.324 C884.671,452.88 884.671,450.641 886.115,449.197 C887.559,447.753 889.798,447.753 891.243,449.197 C892.687,450.641 892.687,452.952 891.243,454.324 Z" id="Path" fill="#FFFFFF"></path>
            <path d="M247.058,535.57 C245.614,537.014 243.375,537.014 241.931,535.57 C240.487,534.125 240.487,531.887 241.931,530.442 C243.375,528.998 245.614,528.998 247.058,530.442 C248.431,531.887 248.431,534.198 247.058,535.57 Z" id="Path" fill="#FFFFFF"></path>
            <path d="M707.449,653.502 C706.005,654.946 703.766,654.946 702.322,653.502 C700.877,652.058 700.877,649.819 702.322,648.375 C703.766,646.93 706.005,646.93 707.449,648.375 C708.893,649.819 708.821,652.058 707.449,653.502 Z" id="Path" fill="#FFFFFF"></path>
            <path d="M291.257,482.417 C289.812,483.862 287.574,483.862 286.129,482.417 C284.685,480.973 284.685,478.734 286.129,477.29 C287.574,475.845 289.812,475.845 291.257,477.29 C292.629,478.734 292.629,481.045 291.257,482.417 Z" id="Path" fill="#FFFFFF"></path>
            <path d="M313.138,563.157 C311.693,564.601 309.454,564.601 308.01,563.157 C306.566,561.713 306.566,559.474 308.01,558.03 C309.454,556.585 311.693,556.585 313.138,558.03 C314.582,559.474 314.582,561.785 313.138,563.157 Z" id="Path" fill="#FFFFFF"></path>
            <path d="M605.332,673.94 C603.888,675.384 601.649,675.384 600.204,673.94 C598.76,672.495 598.76,670.257 600.204,668.812 C601.649,667.368 603.888,667.368 605.332,668.812 C606.704,670.257 606.704,672.495 605.332,673.94 Z" id="Path" fill="#FFFFFF"></path>
            <path d="M547.342,696.905 C545.897,698.35 543.658,698.35 542.214,696.905 C540.77,695.461 540.77,693.222 542.214,691.778 C543.658,690.333 545.897,690.333 547.342,691.778 C548.786,693.222 548.786,695.461 547.342,696.905 Z" id="Path" fill="#FFFFFF"></path>
            <path d="M778.945,153.03 C777.5,154.475 775.262,154.475 773.817,153.03 C772.373,151.586 772.373,149.347 773.817,147.903 C775.262,146.458 777.5,146.458 778.945,147.903 C780.317,149.347 780.317,151.658 778.945,153.03 Z" id="Path" fill="#FFFFFF"></path>
            <path d="M661.445,648.375 C660.001,649.819 657.762,649.819 656.318,648.375 C654.873,646.93 654.873,644.691 656.318,643.247 C657.762,641.803 660.001,641.803 661.445,643.247 C662.89,644.691 662.89,647.002 661.445,648.375 Z" id="Path" fill="#FFFFFF"></path>
            <path d="M826.464,193.617 C825.02,195.061 822.781,195.061 821.337,193.617 C819.893,192.173 819.893,189.934 821.337,188.49 C822.781,187.045 825.02,187.045 826.464,188.49 C827.909,189.934 827.909,192.245 826.464,193.617 Z" id="Path" fill="#FFFFFF"></path>
            <path d="M606.922,138.948 C605.477,140.392 603.239,140.392 601.794,138.948 C600.35,137.503 600.35,135.265 601.794,133.82 C603.239,132.376 605.477,132.376 606.922,133.82 C608.294,135.265 608.294,137.576 606.922,138.948 Z" id="Path" fill="#FFFFFF"></path>
            <path d="M347.441,395.611 C345.997,397.056 343.758,397.056 342.314,395.611 C340.869,394.167 340.869,391.928 342.314,390.484 C343.758,389.039 345.997,389.039 347.441,390.484 C348.886,391.928 348.813,394.167 347.441,395.611 Z" id="Path" fill="#FFFFFF"></path>
            <path d="M316.748,273.057 C315.304,274.501 313.065,274.501 311.621,273.057 C310.177,271.613 310.177,269.374 311.621,267.929 C313.065,266.485 315.304,266.485 316.748,267.929 C318.193,269.374 318.193,271.613 316.748,273.057 Z" id="Path" fill="#FFFFFF"></path>
            <path d="M142.921,275.007 C141.476,276.451 139.238,276.451 137.793,275.007 C136.349,273.562 136.349,271.324 137.793,269.879 C139.238,268.435 141.476,268.435 142.921,269.879 C144.293,271.324 144.293,273.635 142.921,275.007 Z" id="Path" fill="#FFFFFF"></path>
            <path d="M822.349,400.739 C820.905,402.183 818.666,402.183 817.221,400.739 C815.777,399.294 815.777,397.055 817.221,395.611 C818.666,394.167 820.905,394.167 822.349,395.611 C823.793,397.055 823.721,399.294 822.349,400.739 Z" id="Path" fill="#FFFFFF"></path>
            <path d="M647.362,601.577 C645.917,603.022 643.679,603.022 642.234,601.577 C640.79,600.133 640.79,597.894 642.234,596.45 C643.679,595.005 645.917,595.005 647.362,596.45 C648.806,597.822 648.806,600.133 647.362,601.577 Z" id="Path" fill="#FFFFFF"></path>
            <path d="M671.7,204.088 C670.256,205.533 668.017,205.533 666.573,204.088 C665.128,202.644 665.128,200.405 666.573,198.961 C668.017,197.517 670.256,197.517 671.7,198.961 C673.072,200.405 673.072,202.716 671.7,204.088 Z" id="Path" fill="#FFFFFF"></path>
            <path d="M646.135,168.341 C644.69,169.785 642.451,169.785 641.007,168.341 C639.563,166.896 639.563,164.658 641.007,163.213 C642.451,161.769 644.69,161.769 646.135,163.213 C647.579,164.658 647.579,166.969 646.135,168.341 Z" id="Path" fill="#FFFFFF"></path>
            <path d="M126.382,365.496 C124.938,366.941 122.699,366.941 121.255,365.496 C119.81,364.052 119.81,361.813 121.255,360.369 C122.699,358.924 124.938,358.924 126.382,360.369 C127.754,361.813 127.754,364.124 126.382,365.496 Z" id="Path" fill="#FFFFFF"></path>
            <path d="M100.817,329.82 C99.3723,331.265 97.1336,331.265 95.6892,329.82 C94.2449,328.376 94.2449,326.137 95.6892,324.693 C97.1336,323.249 99.3723,323.249 100.817,324.693 C102.261,326.065 102.261,328.376 100.817,329.82 Z" id="Path" fill="#FFFFFF"></path>
            <path d="M707.449,117.282 C706.005,118.727 703.766,118.727 702.322,117.282 C700.877,115.838 700.877,113.599 702.322,112.155 C703.766,110.71 706.005,110.71 707.449,112.155 C708.893,113.599 708.821,115.91 707.449,117.282 Z" id="Path" fill="#FFFFFF"></path>
            <path d="M421.465,382.828 C420.02,384.273 417.782,384.273 416.337,382.828 C414.893,381.384 414.893,379.145 416.337,377.701 C417.782,376.257 420.02,376.257 421.465,377.701 C422.909,379.145 422.837,381.456 421.465,382.828 Z" id="Path" fill="#FFFFFF"></path>
            <path d="M966.858,471.729 C964.041,474.545 959.491,474.545 956.675,471.729 C953.858,468.912 953.858,464.363 956.675,461.546 C959.491,458.73 964.041,458.73 966.858,461.546 C969.674,464.363 969.674,468.912 966.858,471.729 Z" id="Path" fill="#FFFFFF"></path>
            <path d="M896.371,255.147 C893.555,257.963 889.005,257.963 886.189,255.147 C883.372,252.33 883.372,247.78 886.189,244.964 C889.005,242.147 893.555,242.147 896.371,244.964 C899.188,247.78 899.188,252.33 896.371,255.147 Z" id="Path" fill="#FFFFFF"></path>
            <path d="M762.986,783.278 C760.169,786.095 755.619,786.095 752.803,783.278 C749.986,780.461 749.986,775.912 752.803,773.095 C755.619,770.279 760.169,770.279 762.986,773.095 C765.802,775.912 765.802,780.461 762.986,783.278 Z" id="Path" fill="#FFFFFF"></path>
            <path d="M201.921,488.556 C199.104,491.372 194.554,491.372 191.738,488.556 C188.921,485.739 188.921,481.19 191.738,478.373 C194.554,475.557 199.104,475.557 201.921,478.373 C204.737,481.19 204.737,485.739 201.921,488.556 Z" id="Path" fill="#FFFFFF"></path>
            <path d="M494.982,665.635 C492.166,668.451 487.616,668.451 484.799,665.635 C481.983,662.818 481.983,658.268 484.799,655.452 C487.616,652.635 492.166,652.635 494.982,655.452 C497.799,658.268 497.799,662.818 494.982,665.635 Z" id="Path" fill="#FFFFFF"></path>
            <path d="M624.686,947.647 C621.87,950.463 617.32,950.463 614.503,947.647 C611.687,944.83 611.687,940.28 614.503,937.464 C617.32,934.647 621.87,934.647 624.686,937.464 C627.503,940.28 627.503,944.83 624.686,947.647 Z" id="Path" fill="#FFFFFF"></path>
            <path d="M355.095,453.241 C352.278,456.058 347.729,456.058 344.912,453.241 C342.096,450.425 342.096,445.875 344.912,443.058 C347.729,440.242 352.278,440.242 355.095,443.058 C357.911,445.875 357.911,450.425 355.095,453.241 Z" id="Path" fill="#FFFFFF"></path>
            <path d="M97.2767,403.122 C95.8323,404.566 93.5936,404.566 92.1492,403.122 C90.7048,401.677 90.7048,399.439 92.1492,397.994 C93.5936,396.55 95.8323,396.55 97.2767,397.994 C98.6488,399.366 98.6488,401.677 97.2767,403.122 Z" id="Path" fill="#FFFFFF"></path>
            <path d="M104.933,460.752 C102.117,463.568 97.5671,463.568 94.7506,460.752 C91.9341,457.935 91.9341,453.386 94.7506,450.569 C97.5671,447.753 102.117,447.753 104.933,450.569 C107.75,453.386 107.75,457.935 104.933,460.752 Z" id="Path" fill="#FFFFFF"></path>
            <path d="M220.119,297.105 C217.303,299.922 212.753,299.922 209.937,297.105 C207.12,294.289 207.12,289.739 209.937,286.923 C212.753,284.106 217.303,284.106 220.119,286.923 C223.008,289.667 222.936,294.289 220.119,297.105 Z" id="Path" fill="#FFFFFF"></path>
            <path d="M585.907,97.4224 C583.09,100.239 578.54,100.239 575.724,97.4224 C572.907,94.6059 572.907,90.0561 575.724,87.2396 C578.54,84.4231 583.09,84.4231 585.907,87.2396 C588.723,90.0561 588.723,94.6059 585.907,97.4224 Z" id="Path" fill="#FFFFFF"></path>
            <path d="M584.895,750.491 C582.079,753.308 577.529,753.308 574.712,750.491 C571.896,747.675 571.896,743.125 574.712,740.308 C577.529,737.492 582.079,737.492 584.895,740.308 C587.712,743.125 587.712,747.675 584.895,750.491 Z" id="Path" fill="#FFFFFF"></path>
            <path d="M473.317,718.643 C470.501,721.459 465.951,721.459 463.134,718.643 C460.318,715.826 460.318,711.277 463.134,708.46 C465.951,705.644 470.501,705.644 473.317,708.46 C476.134,711.204 476.134,715.826 473.317,718.643 Z" id="Path" fill="#FFFFFF"></path>
            <path d="M738.069,178.595 C735.253,181.412 730.703,181.412 727.887,178.595 C725.07,175.779 725.07,171.229 727.887,168.413 C730.703,165.596 735.253,165.596 738.069,168.413 C740.886,171.229 740.886,175.779 738.069,178.595 Z" id="Path" fill="#FFFFFF"></path>
            <path d="M661.447,122.41 C658.63,125.226 654.08,125.226 651.264,122.41 C648.447,119.593 648.447,115.044 651.264,112.227 C654.08,109.411 658.63,109.411 661.447,112.227 C664.263,115.044 664.263,119.593 661.447,122.41 Z" id="Path" fill="#FFFFFF"></path>
            <path d="M409.044,331.77 C406.227,334.587 401.677,334.587 398.861,331.77 C396.044,328.954 396.044,324.404 398.861,321.587 C401.677,318.771 406.227,318.771 409.044,321.587 C411.86,324.404 411.86,328.954 409.044,331.77 Z" id="Path" fill="#FFFFFF"></path>
            <path d="M288.656,413.449 C285.84,416.265 281.29,416.265 278.474,413.449 C275.657,410.632 275.657,406.083 278.474,403.266 C281.29,400.45 285.84,400.45 288.656,403.266 C291.545,406.083 291.545,410.632 288.656,413.449 Z" id="Path" fill="#FFFFFF"></path>
            <path d="M461.401,801.694 C458.585,804.51 454.035,804.51 451.218,801.694 C448.402,798.877 448.402,794.327 451.218,791.511 C454.035,788.694 458.585,788.694 461.401,791.511 C464.218,794.255 464.218,798.877 461.401,801.694 Z" id="Path" fill="#FFFFFF"></path>
            <path d="M212.033,217.521 C209.217,220.338 204.667,220.338 201.851,217.521 C199.034,214.705 199.034,210.155 201.851,207.338 C204.667,204.522 209.217,204.522 212.033,207.338 C214.85,210.083 214.85,214.705 212.033,217.521 Z" id="Path" fill="#FFFFFF"></path>
            <path d="M661.445,743.63 C677.399,743.63 690.332,730.697 690.332,714.743 C690.332,698.789 677.399,685.856 661.445,685.856 C645.491,685.856 632.558,698.789 632.558,714.743 C632.558,730.697 645.491,743.63 661.445,743.63 Z" id="Path" fill="#FFFFFF"></path>
            <path d="M561.425,876.078 C577.379,876.078 590.312,863.145 590.312,847.191 C590.312,831.237 577.379,818.304 561.425,818.304 C545.471,818.304 532.538,831.237 532.538,847.191 C532.538,863.145 545.471,876.078 561.425,876.078 Z" id="Path" fill="#FFFFFF"></path>
            <path d="M349.97,516.649 C362.454,516.649 372.574,512.09 372.574,506.466 C372.574,500.842 362.454,496.283 349.97,496.283 C337.486,496.283 327.365,500.842 327.365,506.466 C327.365,512.09 337.486,516.649 349.97,516.649 Z" id="Path" fill="#FFFFFF"></path>
            <path d="M305.481,349.969 C314.375,349.969 321.586,342.759 321.586,333.864 C321.586,324.97 314.375,317.76 305.481,317.76 C296.587,317.76 289.376,324.97 289.376,333.864 C289.376,342.759 296.587,349.969 305.481,349.969 Z" id="Path" fill="#FFFFFF"></path>
            <path d="M68.678,677.479 C67.2337,678.923 64.9949,678.923 63.5506,677.479 C62.1062,676.034 62.1062,673.795 63.5506,672.351 C64.9949,670.907 67.2337,670.907 68.678,672.351 C70.1224,673.795 70.1224,676.106 68.678,677.479 Z" id="Path" fill="#FFFFFF"></path>
            <path d="M124.866,590.672 C123.421,592.117 121.182,592.117 119.738,590.672 C118.294,589.228 118.294,586.989 119.738,585.545 C121.182,584.1 123.421,584.1 124.866,585.545 C126.31,586.989 126.31,589.3 124.866,590.672 Z" id="Path" fill="#FFFFFF"></path>
            <path d="M132.52,648.375 C129.703,651.191 125.153,651.191 122.337,648.375 C119.52,645.558 119.52,641.008 122.337,638.192 C125.153,635.375 129.703,635.375 132.52,638.192 C135.336,640.936 135.336,645.558 132.52,648.375 Z" id="Path" fill="#FFFFFF"></path>
            <path d="M66.1516,608.582 C63.3351,611.399 58.7853,611.399 55.9688,608.582 C53.1523,605.766 53.1523,601.216 55.9688,598.4 C58.7853,595.583 63.3351,595.583 66.1516,598.4 C68.9681,601.144 68.9681,605.766 66.1516,608.582 Z" id="Path" fill="#FFFFFF"></path>
            <path d="M212.466,422.693 C211.021,421.249 211.021,419.01 212.466,417.565 C213.91,416.121 216.149,416.121 217.593,417.565 C219.038,419.01 219.038,421.249 217.593,422.693 C216.221,424.137 213.91,424.137 212.466,422.693 Z" id="Path" fill="#FFFFFF"></path>
            <path d="M154.835,430.348 C152.019,427.531 152.019,422.982 154.835,420.165 C157.652,417.349 162.201,417.349 165.018,420.165 C167.834,422.982 167.834,427.531 165.018,430.348 C162.201,433.164 157.652,433.164 154.835,430.348 Z" id="Path" fill="#FFFFFF"></path>
            <path d="M428.688,980 C425.871,982.817 421.321,982.817 418.505,980 C415.688,977.184 415.688,972.634 418.505,969.818 C421.321,967.001 425.871,967.001 428.688,969.818 C431.504,972.562 431.504,977.112 428.688,980 Z" id="Path" fill="#FFFFFF"></path>
            <path d="M323.971,894.494 C322.526,895.938 320.287,895.938 318.843,894.494 C317.399,893.05 317.399,890.811 318.843,889.366 C320.287,887.922 322.526,887.922 323.971,889.366 C325.415,890.811 325.415,893.05 323.971,894.494 Z" id="Path" fill="#FFFFFF"></path>
            <path d="M331.624,952.124 C328.808,954.941 324.258,954.941 321.441,952.124 C318.625,949.308 318.625,944.758 321.441,941.941 C324.258,939.125 328.808,939.125 331.624,941.941 C334.513,944.758 334.513,949.308 331.624,952.124 Z" id="Path" fill="#FFFFFF"></path>
            <path d="M439.23,914.065 C437.786,912.621 437.786,910.382 439.23,908.938 C440.675,907.493 442.913,907.493 444.358,908.938 C445.802,910.382 445.802,912.621 444.358,914.065 C442.913,915.51 440.675,915.51 439.23,914.065 Z" id="Path" fill="#FFFFFF"></path>
            <path d="M381.528,921.72 C378.712,918.904 378.712,914.354 381.528,911.538 C384.345,908.721 388.895,908.721 391.711,911.538 C394.528,914.354 394.528,918.904 391.711,921.72 C388.967,924.537 384.417,924.537 381.528,921.72 Z" id="Path" fill="#FFFFFF"></path>
            <path d="M194.628,363.979 C191.812,361.163 191.812,356.613 194.628,353.797 C197.445,350.98 201.995,350.98 204.811,353.797 C207.628,356.613 207.628,361.163 204.811,363.979 C201.995,366.796 197.445,366.796 194.628,363.979 Z" id="Path" fill="#FFFFFF"></path>
            <path d="M733.375,875.934 C734.82,874.49 737.058,874.49 738.503,875.934 C739.947,877.378 739.947,879.617 738.503,881.062 C737.058,882.506 734.82,882.506 733.375,881.062 C731.931,879.617 732.003,877.306 733.375,875.934 Z" id="Path" fill="#FFFFFF"></path>
            <path d="M758.94,911.682 C760.384,910.238 762.623,910.238 764.067,911.682 C765.512,913.127 765.512,915.365 764.067,916.81 C762.623,918.254 760.384,918.254 758.94,916.81 C757.495,915.365 757.495,913.054 758.94,911.682 Z" id="Path" fill="#FFFFFF"></path>
            <path d="M762.478,838.381 C763.922,836.936 766.161,836.936 767.605,838.381 C769.05,839.825 769.05,842.064 767.605,843.508 C766.161,844.952 763.922,844.952 762.478,843.508 C761.033,842.064 761.106,839.753 762.478,838.381 Z" id="Path" fill="#FFFFFF"></path>
            <path d="M500.181,952.63 C501.626,951.185 503.865,951.185 505.309,952.63 C506.753,954.074 506.753,956.313 505.309,957.757 C503.865,959.201 501.626,959.201 500.181,957.757 C498.737,956.313 498.737,954.002 500.181,952.63 Z" id="Path" fill="#FFFFFF"></path>
            <path d="M525.675,988.378 C527.119,986.933 529.358,986.933 530.803,988.378 C532.247,989.822 532.247,992.061 530.803,993.505 C529.358,994.949 527.119,994.949 525.675,993.505 C524.303,992.061 524.303,989.75 525.675,988.378 Z" id="Path" fill="#FFFFFF"></path>
            <path d="M529.287,915.076 C530.732,913.632 532.971,913.632 534.415,915.076 C535.859,916.521 535.859,918.759 534.415,920.204 C532.971,921.648 530.732,921.648 529.287,920.204 C527.843,918.759 527.843,916.448 529.287,915.076 Z" id="Path" fill="#FFFFFF"></path>
            <path d="M647.291,818.737 C648.735,820.182 648.735,822.42 647.291,823.865 C645.846,825.309 643.608,825.309 642.163,823.865 C640.719,822.42 640.719,820.182 642.163,818.737 C643.536,817.365 645.846,817.365 647.291,818.737 Z" id="Path" fill="#FFFFFF"></path>
            <path d="M704.923,811.082 C707.739,813.899 707.739,818.448 704.923,821.265 C702.106,824.081 697.556,824.081 694.74,821.265 C691.923,818.448 691.923,813.899 694.74,811.082 C697.556,808.266 702.106,808.266 704.923,811.082 Z" id="Path" fill="#FFFFFF"></path>
            <path d="M665.128,877.451 C667.945,880.267 667.945,884.817 665.128,887.633 C662.312,890.45 657.762,890.45 654.945,887.633 C652.129,884.817 652.129,880.267 654.945,877.451 C657.762,874.634 662.312,874.634 665.128,877.451 Z" id="Path" fill="#FFFFFF"></path>
            <path d="M82.9802,545.103 C91.8745,545.103 99.0848,537.892 99.0848,528.998 C99.0848,520.104 91.8745,512.893 82.9802,512.893 C74.0858,512.893 66.8755,520.104 66.8755,528.998 C66.8755,537.892 74.0858,545.103 82.9802,545.103 Z" id="Path" fill="#FFFFFF"></path>
            <path d="M199.755,608.871 C216.426,608.871 229.942,595.356 229.942,578.684 C229.942,562.012 216.426,548.497 199.755,548.497 C183.083,548.497 169.567,562.012 169.567,578.684 C169.567,595.356 183.083,608.871 199.755,608.871 Z" id="Path" fill="#FFFFFF"></path>
            <path d="M845.312,371.779 C853.289,371.779 859.755,365.313 859.755,357.335 C859.755,349.358 853.289,342.892 845.312,342.892 C837.335,342.892 830.868,349.358 830.868,357.335 C830.868,365.313 837.335,371.779 845.312,371.779 Z" id="Path" fill="#FFFFFF"></path>
            <polygon id="Path" fill="#6100FF" points="784.362 377.917 661.808 500.472 651.553 510.654 774.107 633.209 784.362 623.026 906.917 500.472"></polygon>
            <polygon id="Path" fill="#6100FF" points="917.1 510.654 794.546 633.209 784.363 643.463 906.917 766.018 917.1 755.763 1039.65 633.209"></polygon>
            <polygon id="Path" fill="#7D2DFF" points="821.628 500.327 784.219 537.736 859.253 537.881"></polygon>
            <polygon id="Path" fill="#7D2DFF" points="821.769 575.362 784.216 537.736 746.735 575.217"></polygon>
            <path d="M784.362,377.917 L661.808,500.472 L784.362,623.026 L906.916,500.472 L784.362,377.917 Z M709.399,462.99 L783.567,463.135 L746.52,500.183 L709.399,462.99 Z M671.99,500.472 L746.158,500.616 L709.11,537.664 L784.145,537.808 L746.953,500.616 L746.52,500.183 L821.554,500.327 L784.362,463.135 L783.928,462.702 L746.736,425.509 L820.904,425.654 L783.856,462.702 L858.891,462.846 L821.41,500.327 L896.444,500.472 L784.073,612.843 L671.99,500.472 Z" id="Shape" fill="#7D2DFF"></path>
            <polygon id="Path" fill="#7D2DFF" points="954.436 633.064 916.955 670.545 991.989 670.69"></polygon>
            <polygon id="Path" fill="#7D2DFF" points="954.579 708.099 916.953 670.545 879.544 707.954"></polygon>
            <path d="M917.098,510.654 L794.543,633.209 L917.098,755.763 L1039.65,633.209 L917.098,510.654 Z M842.207,595.799 L916.375,595.944 L879.328,632.992 L842.207,595.799 Z M804.726,633.209 L878.894,633.353 L841.846,670.401 L916.881,670.545 L879.689,633.353 L879.255,632.92 L954.29,633.064 L917.098,595.872 L916.664,595.438 L879.472,558.246 L953.64,558.39 L916.592,595.438 L991.627,595.583 L954.146,633.064 L1029.18,633.209 L916.809,745.58 L804.726,633.209 Z" id="Shape" fill="#7D2DFF"></path>
            <polygon id="Path" fill="#313EA3" points="661.735 255.327 539.178 132.77 416.621 255.327 539.178 377.884"></polygon>
            <polygon id="Path" fill="#6100FF" points="406.444 0 283.89 122.554 273.635 132.809 396.261 255.363 406.444 245.108 528.998 122.554"></polygon>
            <polygon id="Path" fill="#6100FF" points="539.182 132.809 416.628 255.363 406.445 265.546 528.999 388.1 539.182 377.917 661.809 255.363"></polygon>
            <polygon id="Path" fill="#7D2DFF" points="443.782 122.41 406.301 159.891 481.335 160.035"></polygon>
            <polygon id="Path" fill="#7D2DFF" points="443.924 197.444 406.298 159.891 368.817 197.3"></polygon>
            <path d="M406.444,0 L283.89,122.554 L406.444,245.108 L528.998,122.554 L406.444,0 Z M331.554,85.1452 L405.722,85.2896 L368.674,122.338 L331.554,85.1452 Z M294.072,122.554 L368.24,122.699 L331.193,159.747 L406.227,159.891 L369.035,122.699 L368.602,122.265 L443.636,122.41 L406.444,85.2174 L406.011,84.7841 L368.818,47.5917 L442.986,47.7362 L405.938,84.7841 L480.973,84.9285 L443.492,122.41 L518.526,122.554 L406.444,234.926 L294.072,122.554 Z" id="Shape" fill="#7D2DFF"></path>
            <polygon id="Path" fill="#7D2DFF" points="576.518 255.219 539.037 292.628 614.144 292.772"></polygon>
            <polygon id="Path" fill="#7D2DFF" points="576.661 330.253 539.035 292.628 501.626 330.109"></polygon>
            <path d="M539.18,132.809 L416.625,255.363 L539.18,377.917 L661.734,255.363 L539.18,132.809 Z M464.289,217.882 L538.457,218.026 L501.41,255.074 L464.289,217.882 Z M426.88,255.363 L501.048,255.508 L464.001,292.556 L539.035,292.7 L501.843,255.508 L501.41,255.074 L576.444,255.219 L539.252,218.026 L538.819,217.593 L501.626,180.401 L575.794,180.545 L538.746,217.593 L613.781,217.738 L576.3,255.219 L651.334,255.363 L539.18,367.662 L426.88,255.363 Z" id="Shape" fill="#7D2DFF"></path>
            <path d="M798.373,241.353 C775.841,218.821 748.398,209.649 737.059,220.915 L701.817,256.158 L783.496,337.836 L818.738,302.594 C830.076,291.328 820.905,263.885 798.373,241.353 Z" id="Path" fill="#A066FF"></path>
            <path d="M783.47,337.907 C794.751,326.626 785.606,299.191 763.044,276.628 C740.482,254.066 713.047,244.921 701.766,256.202 C690.484,267.483 699.63,294.919 722.192,317.481 C744.754,340.043 772.189,349.188 783.47,337.907 Z" id="Path" fill="#7D2DFF"></path>
            <path d="M807.832,252.114 L772.589,287.356 C787.972,307.288 793.099,328.304 783.566,337.836 L818.809,302.594 C828.269,293.061 823.214,272.046 807.832,252.114 Z" id="Path" fill="#7D2DFF"></path>
            <path d="M631.114,490.217 L758.796,362.535 C770.062,351.269 760.962,323.826 738.358,301.294 C715.826,278.762 688.383,269.59 677.117,280.856 L549.436,408.538 L631.114,490.217 Z" id="Path" fill="#A066FF"></path>
            <path d="M754.03,285.695 C739.947,271.612 723.409,265.257 717.126,271.54 L708.315,280.351 C718.137,284.539 728.681,291.689 738.358,301.366 C748.035,311.043 755.185,321.587 759.374,331.409 L768.184,322.598 C774.467,316.315 768.112,299.777 754.03,285.695 Z" id="Path" fill="#6100FF"></path>
            <path d="M631.156,490.24 C642.437,478.959 633.292,451.524 610.73,428.961 C588.168,406.399 560.732,397.254 549.451,408.535 C538.17,419.816 547.315,447.252 569.877,469.814 C592.439,492.376 619.875,501.521 631.156,490.24 Z" id="Path" fill="#6100FF"></path>
            <path d="M747.819,312.127 L620.138,439.809 C635.52,459.741 640.648,480.756 631.115,490.289 L758.797,362.607 C768.329,353.075 763.202,332.059 747.819,312.127 Z" id="Path" fill="#7D2DFF"></path>
            <path d="M601.65,438.003 C587.567,423.92 571.029,417.565 564.746,423.848 L562.363,426.231 C572.546,432.153 582.296,439.519 591.251,448.474 C600.206,457.429 607.572,467.179 613.494,477.362 L615.877,474.978 C622.088,468.623 615.733,452.157 601.65,438.003 Z" id="Path" fill="#5A00EC"></path>
            <path d="M589.417,612.02 C634.439,566.998 634.355,493.921 589.231,448.796 C544.107,403.672 471.029,403.589 426.008,448.61 C380.986,493.632 381.069,566.71 426.193,611.834 C471.318,656.958 544.395,657.041 589.417,612.02 Z" id="Path" fill="#A066FF"></path>
            <path d="M583.833,443.183 C597.101,456.645 600.511,477.251 595.47,499.211 C617.412,537.114 620.6,575.994 600.215,596.751 C637.426,558.923 630.088,490.186 583.833,443.183 Z" id="Path" fill="#7D2DFF"></path>
            <path d="M658.846,417.926 C658.268,417.926 657.69,417.637 657.329,417.132 C652.779,410.632 647.435,404.277 641.441,398.211 C635.375,392.144 629.02,386.8 622.52,382.323 C621.726,381.745 621.509,380.662 622.087,379.795 C622.664,379.001 623.82,378.784 624.614,379.362 C631.331,383.984 637.83,389.472 644.041,395.683 C650.252,401.822 655.74,408.393 660.362,415.11 C660.94,415.904 660.723,417.06 659.929,417.637 C659.568,417.854 659.207,417.926 658.846,417.926 Z" id="Path" fill="#FFFFFF"></path>
            <path d="M666.138,410.632 C665.56,410.632 664.983,410.344 664.622,409.838 C660.144,403.338 654.728,396.983 648.734,390.917 C642.739,384.923 636.384,379.506 629.812,375.029 C629.018,374.451 628.801,373.368 629.379,372.501 C629.957,371.707 631.112,371.49 631.907,372.068 C638.623,376.762 645.123,382.251 651.333,388.389 C657.544,394.6 663.033,401.1 667.655,407.816 C668.233,408.61 668.016,409.766 667.221,410.343 C666.86,410.488 666.499,410.632 666.138,410.632 Z" id="Path" fill="#FFFFFF"></path>
            <path d="M673.505,403.266 C672.927,403.266 672.349,402.977 671.988,402.472 C667.511,395.972 662.094,389.617 656.1,383.551 C650.106,377.484 643.679,372.14 637.179,367.663 C636.385,367.085 636.168,366.002 636.746,365.135 C637.324,364.341 638.479,364.124 639.273,364.702 C645.99,369.324 652.489,374.812 658.7,381.023 C664.911,387.234 670.4,393.733 675.021,400.45 C675.599,401.244 675.383,402.4 674.588,402.977 C674.227,403.122 673.866,403.266 673.505,403.266 Z" id="Path" fill="#FFFFFF"></path>
            <path d="M680.871,395.9 C680.293,395.9 679.715,395.611 679.354,395.105 C674.804,388.606 669.46,382.25 663.466,376.184 C657.4,370.118 651.044,364.774 644.545,360.296 C643.75,359.718 643.534,358.635 644.112,357.769 C644.689,356.974 645.845,356.757 646.639,357.335 C653.355,361.957 659.855,367.446 666.066,373.657 C672.277,379.795 677.765,386.367 682.387,393.083 C682.965,393.878 682.748,395.033 681.954,395.611 C681.593,395.755 681.232,395.9 680.871,395.9 Z" id="Path" fill="#FFFFFF"></path>
            <path d="M688.237,388.533 C687.659,388.533 687.082,388.245 686.721,387.739 C682.171,381.239 676.827,374.884 670.833,368.818 C664.766,362.752 658.411,357.407 651.912,352.93 C651.117,352.352 650.901,351.269 651.478,350.402 C652.056,349.608 653.139,349.391 654.006,349.969 C660.65,354.591 667.222,360.08 673.433,366.29 C679.643,372.501 685.132,379.001 689.754,385.717 C690.332,386.511 690.115,387.667 689.321,388.245 C688.959,388.461 688.598,388.533 688.237,388.533 Z" id="Path" fill="#FFFFFF"></path>
            <path d="M695.603,381.167 C695.026,381.167 694.448,380.878 694.087,380.373 C689.609,373.873 684.193,367.518 678.199,361.452 C672.205,355.385 665.777,350.041 659.278,345.564 C658.483,344.986 658.267,343.903 658.844,343.036 C659.422,342.242 660.578,342.025 661.372,342.603 C668.088,347.225 674.588,352.713 680.799,358.924 C687.01,365.135 692.498,371.634 697.12,378.351 C697.698,379.145 697.481,380.301 696.687,380.878 C696.253,381.095 695.965,381.167 695.603,381.167 Z" id="Path" fill="#FFFFFF"></path>
            <path d="M702.899,373.801 C702.321,373.801 701.743,373.512 701.382,373.007 C696.833,366.507 691.488,360.152 685.494,354.086 C679.5,348.091 673.073,342.675 666.573,338.198 C665.779,337.62 665.562,336.536 666.14,335.67 C666.718,334.875 667.873,334.659 668.668,335.237 C675.384,339.859 681.883,345.419 688.094,351.558 C694.305,357.769 699.794,364.268 704.416,370.985 C704.993,371.779 704.777,372.934 703.982,373.512 C703.621,373.729 703.26,373.801 702.899,373.801 Z" id="Path" fill="#FFFFFF"></path>
            <path d="M781.472,261.646 C783.466,261.646 785.083,260.03 785.083,258.035 C785.083,256.041 783.466,254.425 781.472,254.425 C779.477,254.425 777.861,256.041 777.861,258.035 C777.861,260.03 779.477,261.646 781.472,261.646 Z" id="Path" fill="#FFFFFF"></path>
            <path d="M772.518,270.529 C774.512,270.529 776.129,268.913 776.129,266.918 C776.129,264.924 774.512,263.307 772.518,263.307 C770.524,263.307 768.907,264.924 768.907,266.918 C768.907,268.913 770.524,270.529 772.518,270.529 Z" id="Path" fill="#FFFFFF"></path>
            <path d="M790.355,252.764 C792.349,252.764 793.966,251.147 793.966,249.153 C793.966,247.158 792.349,245.542 790.355,245.542 C788.361,245.542 786.744,247.158 786.744,249.153 C786.744,251.147 788.361,252.764 790.355,252.764 Z" id="Path" fill="#FFFFFF"></path>
            <ellipse id="Oval" fill="#6100FF" transform="translate(447.160000, 609.307000) rotate(38.409200) translate(-447.160000, -609.307000) " cx="447.16" cy="609.307" rx="17.2936" ry="7.60919"></ellipse>
            <ellipse id="Oval" fill="#6100FF" transform="translate(474.139000, 599.373000) rotate(26.309900) translate(-474.139000, -599.373000) " cx="474.139" cy="599.373" rx="14.9635" ry="9.41735"></ellipse>
            <ellipse id="Oval" fill="#6100FF" transform="translate(471.505000, 567.871000) rotate(31.090200) translate(-471.505000, -567.871000) " cx="471.505" cy="567.871" rx="14.9635" ry="12.182"></ellipse>
            <ellipse id="Oval" fill="#6100FF" transform="translate(452.137000, 537.434000) rotate(73.202100) translate(-452.137000, -537.434000) " cx="452.137" cy="537.434" rx="14.9635" ry="12.182"></ellipse>
            <ellipse id="Oval" fill="#6100FF" transform="translate(459.355000, 502.350000) rotate(119.919000) translate(-459.355000, -502.350000) " cx="459.355" cy="502.35" rx="14.9635" ry="12.182"></ellipse>
            <ellipse id="Oval" fill="#6100FF" transform="translate(501.943000, 583.090000) rotate(15.023600) translate(-501.943000, -583.090000) " cx="501.943" cy="583.09" rx="14.9635" ry="12.182"></ellipse>
            <ellipse id="Oval" fill="#6100FF" transform="translate(539.185000, 576.424000) rotate(-18.803500) translate(-539.185000, -576.424000) " cx="539.185" cy="576.424" rx="14.9635" ry="12.182"></ellipse>
            <ellipse id="Oval" fill="#6100FF" transform="translate(511.650000, 611.725000) rotate(0.087170) translate(-511.650000, -611.725000) " cx="511.65" cy="611.725" rx="14.9635" ry="9.41735"></ellipse>
            <ellipse id="Oval" fill="#6100FF" transform="translate(546.237000, 602.040000) rotate(-19.024100) translate(-546.237000, -602.040000) " cx="546.237" cy="602.04" rx="14.9635" ry="9.41735"></ellipse>
            <ellipse id="Oval" fill="#6100FF" transform="translate(576.483000, 578.906000) rotate(-39.067000) translate(-576.483000, -578.906000) " cx="576.483" cy="578.906" rx="14.9635" ry="9.41735"></ellipse>
            <ellipse id="Oval" fill="#6100FF" transform="translate(443.190000, 578.159000) rotate(47.215700) translate(-443.190000, -578.159000) " cx="443.19" cy="578.159" rx="14.9635" ry="9.41735"></ellipse>
            <ellipse id="Oval" fill="#6100FF" transform="translate(426.528000, 544.274000) rotate(77.161700) translate(-426.528000, -544.274000) " cx="426.528" cy="544.274" rx="13.7363" ry="8.64503"></ellipse>
            <ellipse id="Oval" fill="#6100FF" transform="translate(430.678000, 506.919000) rotate(107.806000) translate(-430.678000, -506.919000) " cx="430.678" cy="506.919" rx="13.7363" ry="8.64503"></ellipse>
            <ellipse id="Oval" fill="#6100FF" transform="translate(452.381000, 474.124000) rotate(140.734000) translate(-452.381000, -474.124000) " cx="452.381" cy="474.124" rx="13.7363" ry="8.64503"></ellipse>
            <ellipse id="Oval" fill="#6100FF" transform="translate(417.472000, 575.880000) rotate(53.225500) translate(-417.472000, -575.880000) " cx="417.472" cy="575.88" rx="14.1863" ry="6.24198"></ellipse>
            <ellipse id="Oval" fill="#6100FF" transform="translate(404.473000, 539.916000) rotate(79.174700) translate(-404.473000, -539.916000) " cx="404.473" cy="539.916" rx="14.1863" ry="6.24198"></ellipse>
            <ellipse id="Oval" fill="#6100FF" transform="translate(408.129000, 502.770000) rotate(104.921000) translate(-408.129000, -502.770000) " cx="408.129" cy="502.77" rx="14.1863" ry="6.24198"></ellipse>
            <ellipse id="Oval" fill="#6100FF" transform="translate(427.498000, 468.183000) rotate(128.517000) translate(-427.498000, -468.183000) " cx="427.498" cy="468.183" rx="14.1863" ry="6.24198"></ellipse>
            <ellipse id="Oval" fill="#6100FF" transform="translate(455.293000, 444.906000) rotate(148.136000) translate(-455.293000, -444.906000) " cx="455.293" cy="444.906" rx="14.1863" ry="6.24198"></ellipse>
            <ellipse id="Oval" fill="#6100FF" transform="translate(490.030000, 627.268000) rotate(15.069900) translate(-490.030000, -627.268000) " cx="490.03" cy="627.268" rx="14.1863" ry="6.24198"></ellipse>
            <ellipse id="Oval" fill="#6100FF" transform="translate(530.845000, 629.466000) rotate(-6.521920) translate(-530.845000, -629.466000) " cx="530.845" cy="629.466" rx="14.1863" ry="6.24198"></ellipse>
            <ellipse id="Oval" fill="#6100FF" transform="translate(564.678000, 617.393000) rotate(-29.027100) translate(-564.678000, -617.393000) " cx="564.678" cy="617.393" rx="14.1863" ry="6.24198"></ellipse>
            <ellipse id="Oval" fill="#6100FF" transform="translate(591.043000, 594.871000) rotate(-48.030600) translate(-591.043000, -594.871000) " cx="591.043" cy="594.871" rx="14.1863" ry="6.24198"></ellipse>
            <path d="M162.059,902.031 C161.822,901.835 161.801,901.479 162.015,901.257 L443.208,608.922 C444.527,607.551 446.71,607.513 448.075,608.839 C449.445,610.169 449.466,612.361 448.123,613.718 L162.77,901.995 C162.578,902.189 162.27,902.204 162.059,902.031 Z" id="Path" fill="#FF00E5"></path>
            <path d="M804.901,949.773 C804.668,949.974 804.313,949.934 804.131,949.686 L563.741,622.972 C562.614,621.439 562.947,619.281 564.485,618.161 C566.029,617.037 568.193,617.387 569.302,618.941 L804.986,949.067 C805.144,949.289 805.108,949.595 804.901,949.773 Z" id="Path" fill="#FF00E5"></path>
            <path d="M60.7595,776.21 C60.5883,775.955 60.6700668,775.608 60.9389,775.457 L414.308,576.309 C415.966,575.375 418.067,575.967 418.994,577.629 C419.923,579.297 419.314,581.403 417.637,582.316 L61.4506,776.38 C61.211,776.511 60.9113,776.437 60.7595,776.21 Z" id="Path" fill="#FF00E5"></path>
            <path d="M34.3708,410.808 C34.4172,410.504 34.7126,410.304 35.0122,410.373 L430.107,502.186 C431.961,502.617 433.11,504.473 432.671,506.325 C432.23,508.182 430.358,509.324 428.505,508.865 L34.7659,411.4 C34.501,411.334 34.3297,411.078 34.3708,410.808 Z" id="Path" fill="#FF00E5"></path>
            <path d="M513.749,1020.19254 C513.443,1020.22 513.179,1019.98 513.176,1019.67 L509.159,614.071 C509.14,612.169 510.672,610.613 512.575,610.602961 C514.484,610.594 516.035,612.143 516.026039,614.053 L514.232,1019.67 C514.23,1019.94 514.021,1020.17 513.749,1020.19254 Z" id="Path" fill="#FF00E5"></path>
        </g>
    </g>
</svg>