<svg width="373" height="434" viewBox="0 0 373 434" fill="none" xmlns="http://www.w3.org/2000/svg">
<path d="M188 216.5L0.5 108L188 0L371.5 108L188 216.5Z" fill="#6100FF" fill-opacity="0.5"/>
<path d="M188 427.5L0.5 319L188 211L371.5 319L188 427.5Z" fill="#6100FF" fill-opacity="0.5"/>
<path d="M6.5 322L183.5 218M367.5 322L192 218" stroke="#FF60EF" stroke-width="11"/>
<path d="M5.5 321.34V111.19L186.993 7.34091L367.5 111.181V321.348L186.993 427.13L5.5 321.34Z" stroke="#FF60EF" stroke-width="11" stroke-linejoin="round"/>
<circle r="16.3125" transform="matrix(0.991445 -0.130526 -0.277482 0.960731 181.222 206.3)" fill="white" stroke="white" stroke-width="2"/>
<ellipse cx="207.133" cy="203.01" rx="8.28324" ry="7.80062" transform="matrix(0.490361 0.605476 -0.87152 0.795864 282.49 -83.9723)" fill="white" stroke="white" stroke-width="2"/>
<ellipse cx="222.272" cy="211.193" rx="6.68004" ry="6.29082" transform="matrix(0.490361 0.605476 -0.87152 0.795864 297.337 -91.4684)" fill="white" stroke="white" stroke-width="2"/>
<ellipse cx="240.235" cy="213.238" rx="5.61123" ry="5.28429" transform="matrix(0.490361 0.605476 -0.87152 0.795864 308.274 -101.927)" fill="white" stroke="white" stroke-width="2"/>
<ellipse cx="259.623" cy="210.346" rx="5.07683" ry="4.78103" transform="matrix(0.490361 0.605476 -0.87152 0.795864 315.635 -114.256)" fill="white" stroke="white" stroke-width="2"/>
<ellipse cx="276.653" cy="204.712" rx="4.00802" ry="3.77449" transform="matrix(0.490361 0.605476 -0.87152 0.795864 319.404 -125.718)" fill="white" stroke="white" stroke-width="2"/>
<ellipse cx="291.063" cy="196.031" rx="4.00802" ry="3.77449" transform="matrix(0.490361 0.605476 -0.87152 0.795864 319.181 -136.214)" fill="white" stroke="white" stroke-width="2"/>
<circle r="9.04555" transform="matrix(1.02722 -0.443483 0.0690813 0.862185 205.298 185.735)" fill="white" stroke="white" stroke-width="2"/>
<circle r="7.48835" transform="matrix(1.02722 -0.443483 0.0690813 0.862185 226.267 172.052)" fill="white" stroke="white" stroke-width="2"/>
<circle r="6.45021" transform="matrix(1.02722 -0.443483 0.0690813 0.862185 243.146 155.505)" fill="white" stroke="white" stroke-width="2"/>
<circle r="5.93114" transform="matrix(1.02722 -0.443483 0.0690813 0.862185 256.041 137.436)" fill="white" stroke="white" stroke-width="2"/>
<circle r="4.89301" transform="matrix(1.02722 -0.443483 0.0690813 0.862185 264.137 121.44)" fill="white" stroke="white" stroke-width="2"/>
<circle r="4.89301" transform="matrix(1.02722 -0.443483 0.0690813 0.862185 266.901 107.745)" fill="white" stroke="white" stroke-width="2"/>
<circle r="9.04555" transform="matrix(0.0114226 -0.894212 1.02948 -0.374734 165.091 191.424)" fill="white" stroke="white" stroke-width="2"/>
<circle r="7.48835" transform="matrix(0.0114226 -0.894212 1.02948 -0.374734 159.985 174.803)" fill="white" stroke="white" stroke-width="2"/>
<circle r="6.45021" transform="matrix(0.0114226 -0.894212 1.02948 -0.374734 149.493 163.376)" fill="white" stroke="white" stroke-width="2"/>
<circle r="5.93114" transform="matrix(0.0114226 -0.894212 1.02948 -0.374734 135.219 156.56)" fill="white" stroke="white" stroke-width="2"/>
<circle r="4.89301" transform="matrix(0.0114226 -0.894212 1.02948 -0.374734 120.892 153.921)" fill="white" stroke="white" stroke-width="2"/>
<circle r="4.89301" transform="matrix(0.0114226 -0.894212 1.02948 -0.374734 106.505 155.924)" fill="white" stroke="white" stroke-width="2"/>
<circle r="9.04555" transform="matrix(0.736029 -0.89728 0.719875 0.367326 188.165 180.328)" fill="white" stroke="white" stroke-width="2"/>
<circle r="7.48835" transform="matrix(0.736029 -0.89728 0.719875 0.367326 199.711 159.791)" fill="white" stroke="white" stroke-width="2"/>
<circle r="6.45021" transform="matrix(0.736029 -0.89728 0.719875 0.367326 204.845 140.608)" fill="white" stroke="white" stroke-width="2"/>
<circle r="5.93114" transform="matrix(0.736029 -0.89728 0.719875 0.367326 204.689 123.351)" fill="white" stroke="white" stroke-width="2"/>
<circle r="4.89301" transform="matrix(0.736029 -0.89728 0.719875 0.367326 201.095 110.285)" fill="white" stroke="white" stroke-width="2"/>
<circle r="4.89301" transform="matrix(0.736029 -0.89728 0.719875 0.367326 193.681 101.877)" fill="white" stroke="white" stroke-width="2"/>
<circle r="9.04555" transform="matrix(-0.736029 0.89728 -0.719875 -0.367326 173.436 233.553)" fill="white" stroke="white" stroke-width="2"/>
<circle r="7.48835" transform="matrix(-0.736029 0.89728 -0.719875 -0.367326 161.891 254.089)" fill="white" stroke="white" stroke-width="2"/>
<circle r="6.45021" transform="matrix(-0.736029 0.89728 -0.719875 -0.367326 156.756 273.273)" fill="white" stroke="white" stroke-width="2"/>
<circle r="5.93114" transform="matrix(-0.736029 0.89728 -0.719875 -0.367326 156.912 290.53)" fill="white" stroke="white" stroke-width="2"/>
<circle r="4.89301" transform="matrix(-0.736029 0.89728 -0.719875 -0.367326 160.506 303.596)" fill="white" stroke="white" stroke-width="2"/>
<circle r="4.89301" transform="matrix(-0.736029 0.89728 -0.719875 -0.367326 167.921 312.004)" fill="white" stroke="white" stroke-width="2"/>
<circle r="9.04555" transform="matrix(-1.02948 0.374734 0.0114225 -0.894212 155.755 228.594)" fill="white" stroke="white" stroke-width="2"/>
<circle r="7.48835" transform="matrix(-1.02948 0.374734 0.0114225 -0.894212 134.321 241.016)" fill="white" stroke="white" stroke-width="2"/>
<circle r="6.45021" transform="matrix(-1.02948 0.374734 0.0114225 -0.894212 116.568 256.718)" fill="white" stroke="white" stroke-width="2"/>
<circle r="5.93114" transform="matrix(-1.02948 0.374734 0.0114225 -0.894212 102.515 274.307)" fill="white" stroke="white" stroke-width="2"/>
<circle r="4.89301" transform="matrix(-1.02948 0.374734 0.0114225 -0.894212 93.2702 290.146)" fill="white" stroke="white" stroke-width="2"/>
<circle r="4.89301" transform="matrix(-1.02948 0.374734 0.0114225 -0.894212 89.3695 304.04)" fill="white" stroke="white" stroke-width="2"/>
<circle r="9.04555" transform="matrix(-0.0114226 0.894212 -1.02948 0.374734 195.615 224.142)" fill="white" stroke="white" stroke-width="2"/>
<circle r="7.48835" transform="matrix(-0.0114226 0.894212 -1.02948 0.374734 200.722 240.763)" fill="white" stroke="white" stroke-width="2"/>
<circle r="6.45021" transform="matrix(-0.0114226 0.894212 -1.02948 0.374734 211.213 252.19)" fill="white" stroke="white" stroke-width="2"/>
<circle r="5.93114" transform="matrix(-0.0114226 0.894212 -1.02948 0.374734 225.487 259.006)" fill="white" stroke="white" stroke-width="2"/>
<circle r="4.89301" transform="matrix(-0.0114226 0.894212 -1.02948 0.374734 239.815 261.645)" fill="white" stroke="white" stroke-width="2"/>
<circle r="4.89301" transform="matrix(-0.0114226 0.894212 -1.02948 0.374734 254.201 259.642)" fill="white" stroke="white" stroke-width="2"/>
<circle r="9.04555" transform="matrix(-0.688541 -0.404442 0.765422 -0.881174 154.994 209.991)" fill="white" stroke="white" stroke-width="2"/>
<circle r="7.48835" transform="matrix(-0.688541 -0.404442 0.765422 -0.881174 136.725 206.167)" fill="white" stroke="white" stroke-width="2"/>
<circle r="6.45021" transform="matrix(-0.688541 -0.404442 0.765422 -0.881174 116.985 208.388)" fill="white" stroke="white" stroke-width="2"/>
<circle r="5.93114" transform="matrix(-0.688541 -0.404442 0.765422 -0.881174 96.9655 215.279)" fill="white" stroke="white" stroke-width="2"/>
<circle r="4.89301" transform="matrix(-0.688541 -0.404442 0.765422 -0.881174 80.1625 224.059)" fill="white" stroke="white" stroke-width="2"/>
<circle r="4.89301" transform="matrix(-0.688541 -0.404442 0.765422 -0.881174 66.9333 234.939)" fill="white" stroke="white" stroke-width="2"/>
<path opacity="0.5" d="M188 220L6.5 114V320.5L184.5 426.5L188 220Z" fill="#6100FF" fill-opacity="0.45"/>
<path opacity="0.5" d="M182 222.5L10.5 123V318L182 418V222.5Z" fill="url(#paint0_linear)"/>
<path opacity="0.5" d="M188.5 219.17L365.5 113V319.83L191.913 426L188.5 219.17Z" fill="#6100FF" fill-opacity="0.2"/>
<path d="M188 216.5L0.5 108L188 0L371.5 108L188 216.5Z" fill="url(#paint1_linear)" fill-opacity="0.5"/>
<path opacity="0.5" d="M193 223.5L362 121.5V317.5L193 417.5V223.5Z" fill="#AF7EFF"/>
<path opacity="0.5" d="M193.5 223L362 122V318.5L193.5 417V223Z" fill="url(#paint2_linear)"/>
<path d="M187.5 426L187.5 217" stroke="#FF60EF" stroke-width="11"/>
<path d="M7 115L188 219.5L367.5 112" stroke="#FF60EF" stroke-width="11" stroke-linecap="round" stroke-linejoin="round"/>
<defs>
<linearGradient id="paint0_linear" x1="70.5" y1="237.5" x2="91.5" y2="364" gradientUnits="userSpaceOnUse">
<stop offset="0.00423007" stop-color="#6100FF" stop-opacity="0.47"/>
<stop offset="1" stop-color="white" stop-opacity="0"/>
</linearGradient>
<linearGradient id="paint1_linear" x1="232.5" y1="166" x2="212.5" y2="96.5" gradientUnits="userSpaceOnUse">
<stop stop-color="white"/>
<stop offset="1" stop-color="white" stop-opacity="0"/>
</linearGradient>
<linearGradient id="paint2_linear" x1="249.5" y1="193.5" x2="316" y2="230" gradientUnits="userSpaceOnUse">
<stop stop-color="white"/>
<stop offset="0.510417" stop-color="white" stop-opacity="0.65625"/>
<stop offset="1" stop-color="white" stop-opacity="0"/>
</linearGradient>
</defs>
</svg>
